<svg xmlns="http://www.w3.org/2000/svg" xmlns:xlink="http://www.w3.org/1999/xlink" viewBox="0 0 410.48 285.27"><defs><style>.cls-1{fill:none;}.cls-2{clip-path:url(#clip-path);}.cls-3{clip-path:url(#clip-path-2);}.cls-4{fill:#fff;}</style><clipPath id="clip-path" transform="translate(-29.85 -142.3)"><rect id="SVGID" class="cls-1" x="29.85" y="142.3" width="410.48" height="288.13"/></clipPath><clipPath id="clip-path-2" transform="translate(-29.85 -142.3)"><rect id="SVGID-2" data-name="SVGID" class="cls-1" width="466.33" height="690.17"/></clipPath></defs><title>Asset 1</title><g id="Layer_2" data-name="Layer 2"><g id="Layer_1-2" data-name="Layer 1"><g class="cls-2"><g class="cls-3"><g class="cls-3"><path class="cls-4" d="M305.31,177.8a92,92,0,0,0-72.2-35.5c-19.84,0-40.27,6-57.08,19.19-23,18.1-35.93,45.89-35.93,73.07a95.46,95.46,0,0,0,20.06,58c18.1,23,45.89,35.06,73.07,35.06,19.85,0,40.71-7.29,57.52-20.5,23-18.1,34.62-45.46,34.62-72.64a91.87,91.87,0,0,0-20.06-56.64M287,301.34c-.61-1-1.33-2.18-2.15-3.46l-.14-.22c-1.61-2.51-3.63-5.53-6-9l-.2-.29c-.71-1-1.48-2.14-2.26-3.26,31.4-25.09,43.3-39.28,47.34-49.56a90.68,90.68,0,0,1-11.11,42.39c-4.71,5.67-12.43,12.9-25,23l-.49.38m.45,3.15.06.11a15.91,15.91,0,0,1,.8,1.6,93.58,93.58,0,0,1-9.88,6.63l1.54-.91a17,17,0,0,1-4.36.72h-1.75c3.87-2.55,8.13-5.64,12.87-9.37.26.46.51.88.72,1.26M159,222.94a37.42,37.42,0,0,1-6.43.59c-4.66,0-7.35-1.07-8.93-2a90.44,90.44,0,0,1,12.61-34.65,10.59,10.59,0,0,0,3.22.36,19.78,19.78,0,0,0,2.77-.23c-.61,2-1.18,3.94-1.64,6l-.09.41v.06a88.1,88.1,0,0,0-2,17.66v.49a104.36,104.36,0,0,0,.53,11.32m.58-11.43V211a88.24,88.24,0,0,1,1.93-17.45l.1-.48c.48-2.15,1.07-4.23,1.71-6.27A42.25,42.25,0,0,0,174,183.06c.06.69.12,1.37.2,2.08a1,1,0,0,0,.05.38,103.32,103.32,0,0,0,3.07,14.67l.13.44c1.27,4.44,2.85,9,4.69,13.73-8.95,4.73-16.18,7.23-21.9,8.37a102.38,102.38,0,0,1-.56-11.21m46.56-62.74c.06,3.14-5,13.62-17.36,23.19-2-2.3-3.8-4.3-5.31-5.94l-.17-.18a53.91,53.91,0,0,0-4-4,90.27,90.27,0,0,1,26.78-13.64,2.44,2.44,0,0,0,.07.59m76.18,15.93c0,11.83-9.41,33.38-48.3,63.4-3.81-5-7.75-10-11.74-15.1l-.16-.21-.18-.24c-4-5.11-7.91-10-11.56-14.55l-.31-.38-.08-.1c28-21.48,37.84-39.71,37.89-49a8.14,8.14,0,0,0-.61-3.38A90.31,90.31,0,0,1,281,157.68a16.23,16.23,0,0,1,1.42,7m28.75,23.95a89.92,89.92,0,0,1,12.42,42.76C321,241.49,310.83,255.72,275.5,284c-1.56-2.23-3.25-4.63-5.14-7.27-.09-.11-.17-.23-.26-.36-3.15-4.39-6.53-9-10.06-13.83-.1-.15-.21-.29-.31-.43-.84-1.15-1.71-2.31-2.58-3.49,46.21-37.35,53.94-56.69,54-69v-1m-52.59,74.35.3.41c3.63,4.91,7,9.55,10.09,13.81l.26.36q2.78,3.83,5.21,7.27a223.15,223.15,0,0,1-25,17.39q-3.61-2.52-7.33-5.57l-.36-.29A155.2,155.2,0,0,1,229,284.43l-.33-.33h0q-1.59-1.67-3.17-3.41A240.76,240.76,0,0,0,256,259.52l2.56,3.46m-34,16.71c-3-3.31-5.91-6.78-8.78-10.41l-.36-.46c-1-1.21-1.9-2.44-2.61-3.37-3.32-4.4-6.53-9-9.53-13.56l-.32-.49-.48-.77a233.38,233.38,0,0,0,31.26-20.51l.12.16c3.24,4.22,6.64,8.67,10.07,13.21.87,1.14,1.73,2.28,2.57,3.4l0,.07.31.4c2.92,3.88,5.72,7.62,8.37,11.18a240.55,240.55,0,0,1-30.61,21.22m-15.55-81.2.31.39c4,5,7.82,9.85,11.51,14.58l.29.37V214c3.76,4.81,7.69,9.9,11.71,15.11a228.39,228.39,0,0,1-31.18,20.41c-3.2-5-6.21-10.15-8.95-15.28l-.28-.57c-3-5.7-5.73-11.41-8-17-.07-.14-.13-.29-.2-.46-.17-.43-.33-.85-.51-1.28A197,197,0,0,0,209,198.35l.09.12M183.3,213.66c-1.84-4.66-3.43-9.2-4.69-13.53l-.13-.45a100.76,100.76,0,0,1-3.11-14.47l-.05-.39c-.11-.8-.18-1.58-.25-2.36a94.42,94.42,0,0,0,13.72-8.81l.74.88.21.24c2.55,3,5.49,6.56,8.75,10.55l.27.34c2.93,3.59,6.1,7.51,9.41,11.66a196.63,196.63,0,0,1-24.87,16.34m-.8-47,.17.18c1.47,1.63,3.18,3.59,5.18,5.94a93,93,0,0,1-13,8.39,52.32,52.32,0,0,1,0-8.49v-.32a25.53,25.53,0,0,1,2.36-8.91h0c.41-.32.83-.61,1.24-.92,1,1,2.37,2.37,4,4.15m-6.74-2a29.18,29.18,0,0,0-1.81,7.59v.32a52,52,0,0,0-.07,9.08,43.57,43.57,0,0,1-10,3.7,67.78,67.78,0,0,1,3.27-8l.2-.42a60.1,60.1,0,0,1,7.31-11.27l1.22-1-.12.1m6.84,50.9c.17.41.32.81.49,1.22l.19.48c2.32,5.6,5,11.35,8.05,17.08l.26.5c2.73,5.13,5.72,10.26,8.9,15.26-11.93,6.19-21.7,9.29-29.56,10.51-1.67-3.54-3.19-7.15-4.5-10.8-.07-.17-.13-.35-.19-.53a116.06,116.06,0,0,1-5-18.78v-.25a.54.54,0,0,0-.05-.28c-.34-2-.61-4-.83-6,5.86-1.15,13.2-3.68,22.24-8.45m18.61,35.69c.21.31.4.64.61,1l.32.5c3,4.65,6.25,9.22,9.57,13.61.83,1.1,1.69,2.21,2.62,3.4l.36.45c2.82,3.57,5.73,7,8.66,10.26-12,6.75-22.09,10.49-30.4,12.37-2-2.09-4-4.25-5.82-6.52l-.37-.46c-.9-1.1-1.78-2.22-2.63-3.35A123.14,123.14,0,0,1,175,268.75l-.29-.52c-1.14-2-2.21-4.14-3.23-6.25,8-1.27,17.79-4.45,29.66-10.65m23,30.18c1.12,1.23,2.24,2.44,3.37,3.61l.37.38a157.12,157.12,0,0,0,12.82,11.93l.36.29c2.37,1.95,4.72,3.71,7,5.33a112.34,112.34,0,0,1-25.58,11.22c-1.86-.85-3.71-1.75-5.54-2.76l-.45-.24a96.74,96.74,0,0,1-15.08-10.45l-.41-.36a91.17,91.17,0,0,1-7-6.54c8.36-2,18.39-5.79,30.25-12.47m25.16,22.36c1.36.92,2.71,1.8,4,2.6l.33.2a59.77,59.77,0,0,0,11.3,5.32l.3.1a33.56,33.56,0,0,0,4.93,1.24,85.41,85.41,0,0,1-15.16,7.63c-1.94,0-3.93,0-6,0h-.44a65.49,65.49,0,0,1-15.6-2.59H233l-.38-.11a76.31,76.31,0,0,1-8.27-3,117.69,117.69,0,0,0,25.07-11.29m-17.31,15.26.45.14a67.13,67.13,0,0,0,15.86,2.6h4c-7.73,2.44-13.69,2.52-19.85,3.11a91.09,91.09,0,0,1-36.1-7.78,53.19,53.19,0,0,0,9.34.85,62.66,62.66,0,0,0,16.78-2.41,75.07,75.07,0,0,0,9.43,3.49m24.9,2.54.84-.07q-1.26.36-2.52.69l1.68-.62m2.57-1a92.69,92.69,0,0,0,12.83-7,21.77,21.77,0,0,0,2.28.12h.87a14.91,14.91,0,0,0,1.65-.11A89.75,89.75,0,0,1,263,320.05c-1.16.28-2.3.48-3.43.64m12.18-8.21a32.21,32.21,0,0,1-5.82-1.38h-.08l-.21-.07a58.19,58.19,0,0,1-11.11-5.4l-.33-.19c-1.18-.72-2.38-1.5-3.59-2.32A225,225,0,0,0,275.13,286l2.25,3.21.19.27c2.42,3.48,4.46,6.47,6.06,8.9l.14.23c.87,1.31,1.61,2.47,2.25,3.51-5.33,4.18-10.07,7.56-14.36,10.29m32.62-133.77c1.9,2.42,3.65,4.92,5.27,7.47a30.43,30.43,0,0,1,.24,3.57c0,11.59-7.32,30.64-53.43,67.91-2.67-3.61-5.46-7.33-8.33-11.15l-.35-.47-1.89-2.5-.69-.9c-3.45-4.56-6.84-9-10.08-13.22l-.12-.16c39-30.13,48.79-51.9,48.81-64.43a18.89,18.89,0,0,0-.86-5.83,90.31,90.31,0,0,1,21.43,19.71m-58.55-33.69a6.67,6.67,0,0,1,.91,3.62c0,8.44-9.56,26.66-37.41,48-3.38-4.2-6.57-8.12-9.49-11.65l-.27-.33c-3.29-4-6.26-7.51-8.84-10.51l-.22-.26-.71-.81c12.58-9.86,17.8-20.21,17.8-24.22a2.66,2.66,0,0,0-.2-1,90.22,90.22,0,0,1,38.41-2.87m-74.35,23.56-.17.19a44.7,44.7,0,0,0-4.79,8l-.21.42a70,70,0,0,0-3.48,8.58,19.17,19.17,0,0,1-3.21.3,9,9,0,0,1-2.43-.28,89.51,89.51,0,0,1,14.29-17.13M143.5,223c1.67,1,4.21,1.86,9.13,1.86a39.15,39.15,0,0,0,6.57-.6c.22,2,.48,4,.82,6l.09.55a116.76,116.76,0,0,0,5,18.93c.06.16.11.33.17.49v.06c1.27,3.55,2.74,7.06,4.35,10.52a52.66,52.66,0,0,1-6.64.46c-9.8,0-15.42-3.28-17.71-5.6A89.82,89.82,0,0,1,143.5,223m2.3,34.79c2.87,2.31,8,4.72,17.17,4.81a48.92,48.92,0,0,0,7.26-.48c1.08,2.25,2.21,4.48,3.42,6.66l.29.52a122.71,122.71,0,0,0,9.12,13.9c.86,1.14,1.75,2.28,2.65,3.37l.37.46c1.74,2.12,3.56,4.14,5.42,6.1a61.06,61.06,0,0,1-12.35,1.35,38.5,38.5,0,0,1-16.42-3.29l-.64-.78a90,90,0,0,1-16.29-32.62m18.61,35.43c2.91,1.2,7.41,2.58,14.74,2.57a63.11,63.11,0,0,0,13.35-1.53q3.65,3.74,7.53,7.06l.42.35a96.2,96.2,0,0,0,15.25,10.53l.45.24c1.5.83,3,1.58,4.54,2.3a60.1,60.1,0,0,1-14.91,2,62.81,62.81,0,0,1-12.89-1.54l-1.13-.23a90,90,0,0,1-27.41-21.74m124.86,12.26c-.16-.39-.4-.92-.71-1.51l-.06-.11c-.22-.42-.49-.9-.78-1.4l.64-.51a236.56,236.56,0,0,0,20.82-18.32,90.78,90.78,0,0,1-19.88,21.82" transform="translate(-29.85 -142.3)"/></g><path class="cls-4" d="M50.67,396.49v1.8H30.06v-1.8c6,0,7.11-1.53,7.11-10.53v-14.4c0-9-1.08-10.44-7.11-10.44v-1.8H48.69c9.27,0,14.4,4.77,14.4,11.16,0,6.21-5.13,11.07-14.4,11.07H43.56V386C43.56,395,44.64,396.49,50.67,396.49Zm-2-33.93H43.56v15.66h5.13c5,0,7.38-3.51,7.38-7.74s-2.34-7.92-7.38-7.92Z" transform="translate(-29.85 -142.3)"/><path class="cls-4" d="M76.33,398.29v-1.8c6,0,7.11-1.53,7.11-10.53v-14.4c0-9-1.08-10.44-7.11-10.44v-1.8H96.94v1.8c-6,0-7.11,1.44-7.11,10.44V386c0,9,1.08,10.53,7.11,10.53v1.8Z" transform="translate(-29.85 -142.3)"/><path class="cls-4" d="M146.17,389.2l.45-1.8h1.8l-.72,10.89H114v-1.8c6,0,7.11-1.53,7.11-10.53v-14.4c0-9-1.08-10.44-7.11-10.44v-1.8H145.5l.72,10.8h-1.89l-.45-1.8c-1-4.14-2.16-5.76-10.35-5.76h-6V376h.54c9,0,9.72-1.08,9.72-7.11h1.8v17.55h-1.8c0-5.94-.72-7.11-9.72-7.11h-.57v5.22c0,9,1.08,10.44,7.11,10.44h1.08C143.92,395,145.09,393.43,146.17,389.2Z" transform="translate(-29.85 -142.3)"/><path class="cls-4" d="M163.1,396.49c6,0,7.11-1.53,7.11-10.53v-14.4c0-9-1.08-10.44-7.11-10.44v-1.8h19.08c15.3,0,22,8.82,22,19.44s-6.66,19.53-22,19.53H163.1Zm19.4-33.93h-5.9v25.56c0,5.85.63,6.84,5.13,6.84h.77c11.88,0,14.22-9,14.22-16.2S194.33,362.56,182.5,362.56Z" transform="translate(-29.85 -142.3)"/><path class="cls-4" d="M228.18,386c0,9,1.08,10.53,7.11,10.53v1.8H217.73v-1.8c6,0,7.11-1.53,7.11-10.53v-14.4c0-9-1.08-10.44-7.11-10.44v-1.8h13.51l13.41,30.06L258,359.32h12.6v1.8c-6,0-7.2,1.44-7.2,10.44V386c0,9,1.17,10.53,7.2,10.53v1.8H250v-1.8c6,0,7.11-1.53,7.11-10.53V369.13L243.5,399.82h-1.26l-14-31.86Z" transform="translate(-29.85 -142.3)"/><path class="cls-4" d="M305.85,399.82c-12.06,0-22-9.45-22-21.06,0-11.43,9.9-21,22-21s22,9.54,22,21C327.82,390.37,317.92,399.82,305.85,399.82Zm0-38.61c-10.71,0-14.58,9.81-14.58,17.55s3.87,17.55,14.58,17.55,14.59-9.72,14.59-17.55-3.94-17.55-14.59-17.55Z" transform="translate(-29.85 -142.3)"/><path class="cls-4" d="M341.23,361.12v-1.8H352.3l23.94,28.44v-16.2c0-9-1.08-10.44-7.11-10.44v-1.8h17.55v1.8c-6,0-7.11,1.44-7.11,10.44v28.17h-1.71l-26.19-31.41V386c0,9,1.08,10.53,7.11,10.53v1.8H341.23v-1.8c6,0,7.11-1.53,7.11-10.53v-14.4C348.34,362.56,347.26,361.12,341.23,361.12Z" transform="translate(-29.85 -142.3)"/><path class="cls-4" d="M411.35,362.83c-8.28,0-9,1.53-10.08,5.76l-.45,1.8H399l.63-11.07H439.7l.63,11.07H438.5l-.45-1.8c-1.08-4.23-1.8-5.76-10.08-5.76h-5.13V386c0,9,1.17,10.53,7.2,10.53v1.8H409.28v-1.8c6,0,7.2-1.53,7.2-10.53V362.83Z" transform="translate(-29.85 -142.3)"/><path class="cls-4" d="M29.85,426.93v-.74c2.48,0,2.92-.63,2.92-4.33V416c0-3.7-.44-4.29-2.92-4.29v-.74h8.47v.71c-2.48,0-2.92.59-2.92,4.29v5.91c0,3.7.44,4.33,2.92,4.33v.74Z" transform="translate(-29.85 -142.3)"/><path class="cls-4" d="M41.39,411.63v-.74h4.55l9.83,11.74V416c0-3.7-.44-4.29-2.92-4.29V411h7.21v.68c-2.48,0-2.92.59-2.92,4.29v11.57h-.7L45.68,414.63v7.24c0,3.7.44,4.33,2.92,4.33v.74H41.39v-.74c2.48,0,2.92-.63,2.92-4.33V416C44.31,412.25,43.87,411.63,41.39,411.63Z" transform="translate(-29.85 -142.3)"/><path class="cls-4" d="M66.6,412.36c-3.4,0-3.69.63-4.14,2.37l-.18.74H61.5l.26-4.55H78.25l.26,4.55h-.74l-.19-.74c-.44-1.74-.73-2.37-4.14-2.37h-2.1v9.5c0,3.7.48,4.33,3,4.33v.74H65.75v-.74c2.48,0,3-.63,3-4.33v-9.5Z" transform="translate(-29.85 -142.3)"/><path class="cls-4" d="M93.5,423.2l.19-.74h.74l-.3,4.47H80.28v-.74c2.48,0,2.92-.63,2.92-4.33V416c0-3.7-.44-4.29-2.92-4.29v-.74H93.22l.3,4.44h-.78l-.18-.74c-.41-1.7-.89-2.37-4.25-2.37H85.83v5.51h.22c3.7,0,4-.44,4-2.92h.74v7.21h-.74c0-2.44-.29-2.92-4-2.92h-.22v2.14c0,3.7.44,4.29,2.92,4.29h.44C92.56,425.56,93,424.93,93.5,423.2Z" transform="translate(-29.85 -142.3)"/><path class="cls-4" d="M109.12,422.75c1.48,1.74,3.18,3.18,5,3.44v.74h-4.77l-5-6.88h-1v1.81c0,3.7.45,4.33,2.92,4.33v.74H97.74v-.74c2.47,0,2.92-.63,2.92-4.33V416c0-3.7-.45-4.29-2.92-4.29v-.74h7.65c3.81,0,5.92,2,5.92,4.59,0,2.25-1.71,4.1-4.48,4.47Zm-3.73-10.5h-2.11v6.43h2.11a2.88,2.88,0,0,0,3-2.74,3.09,3.09,0,0,0,0-.43C108.42,413.73,107.5,412.25,105.39,412.25Z" transform="translate(-29.85 -142.3)"/><path class="cls-4" d="M116.78,411.63v-.74h4.54l9.84,11.74V416c0-3.7-.44-4.29-2.92-4.29V411h7.26v.68c-2.48,0-2.92.59-2.92,4.29v11.57h-.71l-10.8-12.86v7.24c0,3.7.44,4.33,2.92,4.33v.74h-7.21v-.74c2.47,0,2.92-.63,2.92-4.33V416C119.7,412.25,119.25,411.63,116.78,411.63Z" transform="translate(-29.85 -142.3)"/><path class="cls-4" d="M140.85,423.34c-.93,2.18-.93,2.81,2,2.81v.78h-7v-.78c2.26,0,2.59-.44,3.81-3.21l5.44-12.65h.52l5.43,12.65c1.22,2.77,1.66,3.21,3.62,3.21v.78h-8.28v-.78c2.66,0,2.92-.63,2-2.81l-.74-1.7h-6.06Zm3.77-8.72-2.44,5.65h4.88Z" transform="translate(-29.85 -142.3)"/><path class="cls-4" d="M158.78,412.36c-3.4,0-3.7.63-4.14,2.37l-.19.74h-.74l.26-4.55h16.46l.25,4.55H170l-.19-.74c-.44-1.74-.74-2.37-4.14-2.37H163.5v9.5c0,3.7.48,4.33,3,4.33v.74H158v-.74c2.48,0,3-.63,3-4.33v-9.5Z" transform="translate(-29.85 -142.3)"/><path class="cls-4" d="M173.5,426.93v-.74c2.48,0,2.93-.63,2.93-4.33V416c0-3.7-.45-4.29-2.93-4.29v-.74H182v.71c-2.48,0-2.92.59-2.92,4.29v5.91c0,3.7.44,4.33,2.92,4.33v.74Z" transform="translate(-29.85 -142.3)"/><path class="cls-4" d="M192.87,427.56a8.64,8.64,0,1,1,9-8.65A8.85,8.85,0,0,1,192.87,427.56Zm0-15.86c-4.4,0-6,4-6,7.21s1.59,7.21,6,7.21,6-4,6-7.21S197.23,411.7,192.87,411.7Z" transform="translate(-29.85 -142.3)"/><path class="cls-4" d="M203.7,411.63v-.74h4.55l9.83,11.74V416c0-3.7-.44-4.29-2.92-4.29V411h7.21v.68c-2.47,0-2.92.59-2.92,4.29v11.57h-.7L208,414.63v7.24c0,3.7.44,4.33,2.92,4.33v.74H203.7v-.74c2.48,0,2.92-.63,2.92-4.33V416C206.62,412.25,206.18,411.63,203.7,411.63Z" transform="translate(-29.85 -142.3)"/><path class="cls-4" d="M226.92,423.34c-.92,2.18-.92,2.81,2,2.81v.78h-7v-.78c2.26,0,2.59-.44,3.81-3.21l5.43-12.65h.52l5.44,12.65c1.22,2.77,1.66,3.21,3.62,3.21v.78H232.5v-.78c2.66,0,2.92-.63,2-2.81l-.74-1.7H227.7Zm3.77-8.72-2.44,5.65h4.88Z" transform="translate(-29.85 -142.3)"/><path class="cls-4" d="M243.56,411.63v-.74H252v.74c-2.48,0-2.93.59-2.93,4.29v5.32c0,3.7.45,4.29,2.93,4.29h1.29c3.4,0,3.85-.63,4.29-2.36l.18-.74h.78l-.26,4.47H243.56v-.74c2.48,0,2.92-.63,2.92-4.33v-5.91C246.5,412.25,246,411.63,243.56,411.63Z" transform="translate(-29.85 -142.3)"/><path class="cls-4" d="M277.83,425.89c2.59,0,4.51-1.47,4.51-4.69V416c0-3.7-.44-4.29-2.92-4.29v-.74H287v.71c-2.44,0-2.92.59-2.92,4.29v5c0,4.33-3,6.58-6.61,6.58s-6.59-2.25-6.59-6.58v-5c0-3.7-.44-4.29-2.92-4.29v-.74h8.47v.74c-2.44,0-2.92.59-2.92,4.29v5.25C273.5,424.42,275.24,425.89,277.83,425.89Z" transform="translate(-29.85 -142.3)"/><path class="cls-4" d="M289.74,411.63v-.74h4.55l9.83,11.74V416c0-3.7-.44-4.29-2.92-4.29V411h7.21v.68c-2.48,0-2.92.59-2.92,4.29v11.57h-.7L294,414.63v7.24c0,3.7.44,4.33,2.92,4.33v.74h-7.21v-.74c2.48,0,2.92-.63,2.92-4.33V416C292.66,412.25,292.22,411.63,289.74,411.63Z" transform="translate(-29.85 -142.3)"/><path class="cls-4" d="M310.93,426.93v-.74c2.47,0,2.92-.63,2.92-4.33V416c0-3.7-.45-4.29-2.92-4.29v-.74h8.46v.71c-2.47,0-2.92.59-2.92,4.29v5.91c0,3.7.45,4.33,2.92,4.33v.74Z" transform="translate(-29.85 -142.3)"/><path class="cls-4" d="M336.62,414.91l-5.43,12.65h-.52l-5.44-12.65c-1.22-2.81-1.66-3.25-3.62-3.25v-.74h8.32v.71c-2.7,0-3,.67-2,2.81l3.77,8.73,3.77-8.73c1-2.18,1-2.81-2-2.81v-.74h7v.74C338.17,411.63,337.84,412.1,336.62,414.91Z" transform="translate(-29.85 -142.3)"/><path class="cls-4" d="M355.77,423.2l.19-.74h.74l-.3,4.47H342.58v-.74c2.47,0,2.92-.63,2.92-4.33V416c0-3.7-.45-4.29-2.92-4.29v-.74H355.5l.3,4.44H355l-.18-.74c-.41-1.7-.89-2.37-4.25-2.37h-2.48v5.51h.22c3.7,0,4-.44,4-2.92h.75v7.21h-.75c0-2.44-.29-2.92-4-2.92h-.22v2.14c0,3.7.44,4.29,2.92,4.29h.47C354.85,425.56,355.33,424.93,355.77,423.2Z" transform="translate(-29.85 -142.3)"/><path class="cls-4" d="M371.56,422.75c1.48,1.74,3.18,3.18,4.95,3.44v.74h-4.73l-5-6.88h-1v1.81c0,3.7.44,4.33,2.92,4.33v.74h-8.47v-.74c2.48,0,2.92-.63,2.92-4.33V416c0-3.7-.44-4.29-2.92-4.29v-.74h7.66c3.8,0,5.91,2,5.91,4.59,0,2.25-1.7,4.1-4.47,4.47Zm-3.73-10.5h-2.11v6.43h2.11a2.88,2.88,0,0,0,3-2.74,3.09,3.09,0,0,0,0-.43A2.89,2.89,0,0,0,367.83,412.25Z" transform="translate(-29.85 -142.3)"/><path class="cls-4" d="M384.39,427.56a7.78,7.78,0,0,1-4.14-1.37,3,3,0,0,0-.7,1.37h-.67V421.2h.74c.3,3.14,2.29,4.92,5.07,4.92,1.59,0,2.84-.89,2.84-2.48,0-1.3-1-2.29-3-3.29l-2.51-1.3a5,5,0,0,1-3-4.51,4.34,4.34,0,0,1,4.46-4.22h.16a5.92,5.92,0,0,1,3.47,1.11,2,2,0,0,0,.59-1.15h.71v6.25h-.74c-.22-2.22-1.22-4.84-3.88-4.84-1.45,0-2.67.77-2.67,2.14s1,2,3.22,3.18l2.48,1.3a4.74,4.74,0,0,1,2.92,4.17,5.07,5.07,0,0,1-5,5.08Z" transform="translate(-29.85 -142.3)"/><path class="cls-4" d="M392.78,426.93v-.74c2.48,0,2.92-.63,2.92-4.33V416c0-3.7-.44-4.29-2.92-4.29v-.74h8.47v.71c-2.48,0-2.92.59-2.92,4.29v5.91c0,3.7.44,4.33,2.92,4.33v.74Z" transform="translate(-29.85 -142.3)"/><path class="cls-4" d="M408.2,412.36c-3.4,0-3.7.63-4.14,2.37l-.18.74h-.74l.26-4.55h16.45l.26,4.55h-.74l-.19-.74c-.44-1.74-.74-2.37-4.14-2.37h-2.11v9.5c0,3.7.48,4.33,3,4.33v.74h-8.54v-.74c2.48,0,3-.63,3-4.33v-9.5Z" transform="translate(-29.85 -142.3)"/><path class="cls-4" d="M432.05,421.86c0,3.7.44,4.33,2.92,4.33v.74H426.5v-.74c2.48,0,2.92-.63,2.92-4.33v-1.51l-3.66-5.44c-1.73-2.55-2.4-3.25-4.36-3.25v-.74h8.25v.71c-2.33,0-2.55.63-1.08,2.81l2.85,4.25,2.88-4.25c1.52-2.26,1.45-2.81-1.07-2.81v-.74h7v.74c-2,0-2.92.85-4.55,3.25l-3.62,5.4Z" transform="translate(-29.85 -142.3)"/></g></g></g></g></svg>