<svg id="Layer_1" data-name="Layer 1" xmlns="http://www.w3.org/2000/svg" width="28" height="28" viewBox="0 0 343.1 343.1"><defs><style>.cls-1{fill:#fff;}</style></defs><title>PIU_Globe_Icon_forWeb</title><path class="cls-1" d="M350.32,109.88C316.8,67.24,267,44.15,216.62,44.15c-36.74,0-74.58,11.06-105.71,35.53C68.27,113.2,44.37,164.67,44.37,215A177,177,0,0,0,81.52,322.34c33.53,42.64,85,64.92,135.33,64.92,36.75,0,75.39-13.5,106.52-38,42.65-33.52,64.1-84.18,64.1-134.51C387.47,178,374.79,141,350.32,109.88ZM316.46,338.59c-1.14-1.89-2.46-4-4-6.4l-.26-.41c-3-4.65-6.73-10.25-11.13-16.66l-.37-.53c-1.32-1.92-2.74-3.95-4.19-6,58.15-46.46,80.18-72.73,87.68-91.78a168,168,0,0,1-20.52,78.57c-8.72,10.49-23,23.89-46.33,42.54Zm.84,5.83.1.2c.74,1.33,1.23,2.36,1.49,3a169.36,169.36,0,0,1-18.29,12.28l2.85-1.69a30.22,30.22,0,0,1-8.07,1.34h-.49c-.89,0-1.83,0-2.76-.08C299.3,354.73,307.19,349,316,342.1,316.45,342.94,316.9,343.72,317.3,344.42Zm-237.86-151a68.84,68.84,0,0,1-11.92,1.11c-8.63,0-13.61-2-16.52-3.8a167.51,167.51,0,0,1,23.34-64.16,19.46,19.46,0,0,0,6,.67,37.12,37.12,0,0,0,5.12-.42c-1.13,3.62-2.17,7.3-3,11.08-.05.26-.11.51-.17.77l0,.11a165.27,165.27,0,0,0-3.74,32.7c0,.23,0,.46,0,.69v.3A190.37,190.37,0,0,0,79.44,193.47Zm1.07-21.16v-.13c0-.28,0-.56,0-.82A163.66,163.66,0,0,1,84.1,139l.2-.89c.88-4,2-7.82,3.16-11.61A78.34,78.34,0,0,0,107,119.61c.12,1.28.22,2.54.38,3.85,0,.23.06.46.08.71a189.14,189.14,0,0,0,5.7,27.16l.22.82c2.35,8.22,5.29,16.76,8.69,25.42-16.58,8.77-30,13.4-40.55,15.51A187.35,187.35,0,0,1,80.51,172.31ZM166.8,56.15c.11,5.81-9.19,25.22-32.16,42.95-3.71-4.27-7-8-9.84-11l-.31-.33a104,104,0,0,0-7.42-7.44,166.66,166.66,0,0,1,49.6-25.27C166.7,55.25,166.74,55.55,166.8,56.15ZM307.89,85.67c0,21.91-17.42,61.83-89.45,117.41-7.06-9.17-14.36-18.57-21.74-28l-.3-.39-.34-.43c-7.44-9.46-14.64-18.52-21.4-27l-.58-.7-.14-.19c51.79-39.78,70.08-73.54,70.17-90.72A15.52,15.52,0,0,0,243,49.48a167.59,167.59,0,0,1,62.28,23.17A30,30,0,0,1,307.89,85.67ZM361.13,130a166.55,166.55,0,0,1,23,79.18c-4.83,18.7-23.57,45.06-89,97.37-2.89-4.13-6-8.56-9.53-13.45-.15-.22-.31-.43-.47-.67-5.83-8.14-12.1-16.76-18.63-25.62-.19-.27-.39-.53-.57-.79l-4.79-6.47c85.59-69.17,99.89-105,99.92-127.72C361.06,131.22,361.11,130.61,361.13,130Zm-97.4,137.68c.17.24.35.47.56.77,6.72,9.08,13,17.68,18.69,25.56l.48.67c3.42,4.73,6.62,9.21,9.64,13.48a411.1,411.1,0,0,1-46.26,32.19c-4.46-3.11-9-6.53-13.57-10.3l-.66-.54a290.16,290.16,0,0,1-23.55-22l-.6-.62-.07-.06q-3-3.09-5.89-6.32c16.83-9.67,35.62-22.45,56.49-39.19C260.6,263.45,262.18,265.59,263.73,267.68Zm-62.88,30.95c-5.51-6.13-11-12.56-16.26-19.28l-.67-.85c-1.77-2.24-3.51-4.52-4.83-6.25-6.15-8.14-12.09-16.58-17.66-25.1l-.59-.91c-.34-.51-.66-1-1-1.56,17-9.07,36.22-21.43,57.88-38a3.55,3.55,0,0,0,.23.31c6,7.82,12.28,16.05,18.65,24.45l4.75,6.31.1.13c.2.25.38.5.56.74q8.13,10.77,15.51,20.7C236.53,276.18,217.68,289,200.85,298.63ZM172.06,148.26c.2.23.38.47.57.71,7.3,9.17,14.47,18.25,21.3,27,.19.23.37.47.55.7l.08.11c7,8.91,14.26,18.32,21.68,28-21.65,16.56-40.83,28.84-57.74,37.8-5.92-9.3-11.5-18.8-16.57-28.31l-.49-.92c-5.6-10.55-10.62-21.12-14.92-31.44l-.36-.86c-.32-.79-.62-1.57-.94-2.36,13.48-7.29,29-17.24,46.66-30.64Zm-47.75,28.13c-3.42-8.62-6.35-17-8.68-25.06l-.24-.83a188.32,188.32,0,0,1-5.77-26.81l-.1-.71c-.19-1.49-.32-2.93-.46-4.37a174.92,174.92,0,0,0,25.41-16.32l1.38,1.63.39.45C141,110,146.4,116.52,152.43,123.9l.51.62c5.43,6.66,11.29,13.93,17.42,21.61C152.88,159.37,137.59,169.19,124.31,176.39ZM123,89.1l.3.34c2.73,3,5.9,6.65,9.61,11A172.91,172.91,0,0,1,108.83,116a93.27,93.27,0,0,1,0-15.71l.06-.59a47.6,47.6,0,0,1,4.37-16.5l.07-.07,0,0c.75-.59,1.52-1.14,2.28-1.72C117.48,83.19,120,85.81,123,89.1Zm-12.65-3.53A54.19,54.19,0,0,0,107,99.63l-.06.59a96.34,96.34,0,0,0-.13,16.81,80.42,80.42,0,0,1-18.49,6.86,125.46,125.46,0,0,1,6-14.86l.37-.77a110.85,110.85,0,0,1,13.58-21c.75-.63,1.5-1.26,2.26-1.88ZM123,179.85c.3.76.58,1.5.89,2.26l.37.89c4.28,10.38,9.3,21,14.9,31.64l.48.92c5.05,9.5,10.6,19,16.48,28.26C134,255.28,115.93,261,101.38,263.27c-3.09-6.55-5.91-13.23-8.34-20l-.35-1a217.05,217.05,0,0,1-9.18-34.77l-.08-.47c0-.17-.06-.35-.09-.51-.63-3.69-1.12-7.37-1.54-11C92.66,193.37,106.25,188.69,123,179.85Zm34.46,66.09c.38.59.74,1.18,1.12,1.76l.6.93c5.61,8.6,11.57,17.08,17.72,25.2,1.55,2,3.13,4.09,4.85,6.29.21.25.41.52.66.84,5.24,6.62,10.61,13,16.05,19-22.26,12.49-40.92,19.41-56.31,22.9-3.7-3.86-7.31-7.87-10.76-12.07l-.7-.85c-1.66-2-3.29-4.12-4.87-6.2a231.52,231.52,0,0,1-16.77-25.54l-.53-1c-2.12-3.8-4.09-7.68-6-11.59C117.3,263.31,135.47,257.42,157.46,245.94Zm42.66,55.9c2.07,2.27,4.16,4.51,6.25,6.68l.67.7a289.9,289.9,0,0,0,23.76,22.1l.66.54c4.38,3.6,8.73,6.87,13,9.86-18.6,10.74-34.36,17.18-47.6,20.88-3.45-1.57-6.88-3.24-10.28-5.1l-.82-.45a177.84,177.84,0,0,1-27.93-19.35l-.76-.65c-4.45-3.79-8.79-7.85-13-12.12C159.58,321.26,178.15,314.21,200.12,301.84Zm46.6,41.41c2.52,1.7,5,3.33,7.47,4.81l.63.37a110.52,110.52,0,0,0,20.91,9.85l.56.19a64.38,64.38,0,0,0,9.12,2.29,157,157,0,0,1-28.06,14.13c-3.6.1-7.28,0-11.21-.09h-.25l-.56,0A122.28,122.28,0,0,1,216.44,370l-.12,0-.72-.21a140.43,140.43,0,0,1-15.31-5.57C213.41,360.21,228.79,353.69,246.72,343.25Zm-32.07,28.26.84.25a123.87,123.87,0,0,0,29.38,4.82l.84,0c1.13,0,2.24.05,3.35.05s2.12,0,3.22,0c-14.31,4.51-25.34,4.66-36.75,5.75A168.28,168.28,0,0,1,148.77,368a97.45,97.45,0,0,0,17.3,1.58A115.75,115.75,0,0,0,197.2,365,141.91,141.91,0,0,0,214.65,371.51Zm46.12,4.69,1.56-.12c-1.56.44-3.11.88-4.67,1.27C258.68,377,259.71,376.61,260.77,376.2Zm4.76-1.95a172.43,172.43,0,0,0,23.77-13c1.43.13,2.84.21,4.21.21h1.12l.46,0c1,0,2.12-.1,3.06-.21a166.37,166.37,0,0,1-26.27,11.81A60.85,60.85,0,0,1,265.53,374.25Zm22.57-15.19a59.85,59.85,0,0,1-10.79-2.56l-.15-.05-.4-.14a109.58,109.58,0,0,1-20.46-9.78l-.6-.37c-2.19-1.32-4.41-2.78-6.65-4.29a414.6,414.6,0,0,0,45.46-31.72c1.44,2,2.84,4,4.17,5.94.12.17.24.33.35.51,4.48,6.43,8.26,12,11.22,16.48.09.16.19.29.27.42,1.6,2.43,3,4.58,4.15,6.5C304.82,347.74,296,354,288.1,359.06Zm60.31-247.68a166.83,166.83,0,0,1,9.77,13.84,54.51,54.51,0,0,1,.45,6.61c0,21.47-13.56,56.75-98.94,125.76-4.95-6.67-10.11-13.58-15.44-20.65l-.65-.87-3.5-4.62-1.27-1.68c-6.4-8.45-12.67-16.68-18.67-24.47l-.23-.29c72.27-55.82,90.36-96.12,90.4-119.34a35,35,0,0,0-1.6-10.79A166.88,166.88,0,0,1,348.41,111.38ZM240,49a12.26,12.26,0,0,1,1.68,6.72c.09,15.62-17.7,49.37-69.26,88.83-6.26-7.78-12.18-15-17.58-21.58l-.5-.61c-6.1-7.37-11.6-13.91-16.37-19.45l-.42-.48-1.31-1.52c23.29-18.2,32.89-37.36,33-44.78a5.07,5.07,0,0,0-.36-1.8,167.36,167.36,0,0,1,47.75-7A169.13,169.13,0,0,1,240,49ZM102.27,92.61A4.64,4.64,0,0,0,102,93a81.45,81.45,0,0,0-8.86,14.66l-.39.78a129.33,129.33,0,0,0-6.45,15.89,35.64,35.64,0,0,1-5.94.55,16.33,16.33,0,0,1-4.51-.52A166.39,166.39,0,0,1,102.27,92.61Zm-51.65,101c3.1,1.89,7.8,3.43,16.9,3.43a72.12,72.12,0,0,0,12.17-1.11c.42,3.71.9,7.43,1.53,11.16,0,.34.11.68.17,1a218.26,218.26,0,0,0,9.17,35.06c.11.3.22.61.32.91l0,.1c2.35,6.59,5.07,13.09,8,19.48a93.31,93.31,0,0,1-12.29.86c-18.15,0-28.56-6.08-32.8-10.38a166.37,166.37,0,0,1-3.26-60.52ZM54.87,258c5.33,4.3,14.9,8.75,31.81,8.92a91.73,91.73,0,0,0,13.44-.89c2,4.17,4.09,8.3,6.34,12.33.17.33.35.65.53,1a229.55,229.55,0,0,0,16.89,25.74c1.59,2.11,3.24,4.21,4.91,6.24l.69.85c3.22,3.92,6.59,7.66,10,11.3a113.32,113.32,0,0,1-22.87,2.49c-15.43,0-25.23-3.76-30.41-6.09-.39-.48-.79-1-1.18-1.45A166.92,166.92,0,0,1,54.87,258Zm34.48,65.63c5.38,2.22,13.72,4.76,27.29,4.76a116.5,116.5,0,0,0,24.83-2.85c4.5,4.62,9.15,9,13.95,13.08l.78.65a178.08,178.08,0,0,0,28.24,19.5l.82.45c2.79,1.52,5.6,2.92,8.42,4.25a111.7,111.7,0,0,1-27.61,3.7c-11.26,0-18.91-2-23.87-2.86l-2.09-.43A166.57,166.57,0,0,1,89.35,323.62Zm231.22,22.69c-.3-.72-.74-1.69-1.32-2.8l-.11-.2c-.41-.78-.9-1.66-1.44-2.59l1.19-.94C336.11,326,348.44,315,357.38,305.91A167.66,167.66,0,0,1,320.57,346.31Z" transform="translate(-44.37 -44.15)"/></svg>