<svg version="1" xmlns="http://www.w3.org/2000/svg" width="346.667" height="346.667" viewBox="0 0 260.000000 260.000000"><path d="M110 1.5C31.9 13.9-16.7 91.1 5.5 167.5c11.9 41 46 75.1 87 87 76.9 22.4 154.1-26.7 166-105.5 8.6-56.6-21.5-112.5-73.8-137-22-10.3-50.4-14.3-74.7-10.5zm46.3 57c3.8.8 9.3 2.5 12.3 3.9 7.2 3.3 15.7 11.5 19.1 18.5 2.5 5 2.8 6.7 2.8 16.1 0 9.6-.2 11-2.9 16.3-3.4 6.7-10.3 13.5-17.2 17-9.4 4.8-15 5.9-32.1 6.4l-16.3.6v14.1c0 15.7 1.3 25.6 3.8 30.1 2.4 4.2 9.4 7.5 15.9 7.5h5.3v7H72.9l.3-3.3c.3-3.2.3-3.2 6.9-3.8 12.2-1 16.3-5.6 17.9-20 .6-4.6 1-23.7 1-42.4s-.4-37.8-1-42.4c-1.6-14.4-5.7-19-17.9-20-6.6-.6-6.6-.6-6.9-3.9l-.3-3.2h38.3c29.6 0 39.9.4 45.1 1.5z"/><path d="M122 97v28h10c18.3 0 25.5-3.2 30.6-13.7 2.5-5 2.9-6.9 2.9-14.3 0-10.3-2.8-17.3-8.6-22.4-5.3-4.5-9.8-5.6-23.3-5.6H122v28z"/></svg>