<?xml version="1.0" standalone="no"?>
<!DOCTYPE svg PUBLIC "-//W3C//DTD SVG 20010904//EN"
 "http://www.w3.org/TR/2001/REC-SVG-20010904/DTD/svg10.dtd">
<svg version="1.0" xmlns="http://www.w3.org/2000/svg"
 width="260.000000pt" height="260.000000pt" viewBox="0 0 260.000000 260.000000"
 preserveAspectRatio="xMidYMid meet">
<metadata>
Created by potrace 1.11, written by Peter Selinger 2001-2013
</metadata>
<g transform="translate(0.000000,260.000000) scale(0.100000,-0.100000)"
fill="#000000" stroke="none">
<path d="M1085 2584 c-629 -110 -1085 -650 -1085 -1284 0 -718 582 -1300 1300
-1300 718 0 1300 582 1300 1300 0 562 -359 1058 -893 1235 -56 18 -144 40
-196 49 -115 19 -316 19 -426 0z m435 -453 c88 -30 184 -88 249 -151 62 -59
61 -60 93 48 l22 72 38 0 38 0 -2 -312 -3 -313 -36 -3 -37 -3 -17 73 c-29 115
-106 258 -180 334 -90 92 -184 135 -308 142 -211 11 -367 -81 -461 -273 -58
-116 -78 -208 -83 -385 -8 -236 26 -381 122 -531 99 -153 275 -230 462 -201
214 34 366 192 444 462 l23 81 36 -3 35 -3 3 -312 2 -313 -37 0 -38 0 -22 73
c-34 108 -34 108 -85 58 -226 -227 -569 -252 -862 -64 -172 111 -288 269 -353
480 -23 78 -26 104 -26 233 0 129 3 155 27 235 94 308 317 519 626 591 83 20
250 12 330 -15z"/>
</g>
</svg>
